<svg xmlns="http://www.w3.org/2000/svg" xmlns:xlink="http://www.w3.org/1999/xlink" width="500" zoomAndPan="magnify" viewBox="0 0 375 374.999991" height="500" preserveAspectRatio="xMidYMid meet" version="1.0"><defs><g/><clipPath id="fadf2b1219"><path d="M 64 143.117188 L 141 143.117188 L 141 248 L 64 248 Z M 64 143.117188 " clip-rule="nonzero"/></clipPath></defs><g clip-path="url(#fadf2b1219)"><path fill="#e1dfdf" d="M 124.109375 194.257812 C 124.109375 194.257812 128.726562 162.007812 109.722656 150.195312 C 109.722656 150.195312 79.800781 157.816406 90.191406 193.992188 C 90.191406 193.992188 84.660156 191.347656 81.050781 175.472656 C 81.050781 175.472656 81.734375 193.21875 93.871094 199.570312 C 98.851562 202.179688 110.398438 205.058594 119.054688 201.6875 C 127.714844 198.320312 130.84375 202.171875 131.082031 202.171875 C 131.324219 202.171875 125.308594 200.246094 120.5 206.257812 C 120.5 206.257812 127.476562 201.6875 134.449219 205.539062 C 141.425781 209.386719 140.222656 216.363281 140.222656 216.363281 C 140.222656 216.363281 140.597656 207.472656 127.476562 209.144531 C 116.171875 210.589844 115.6875 223.820312 107.269531 232.238281 C 98.851562 240.65625 85.621094 242.097656 85.621094 242.097656 C 85.621094 242.097656 91.394531 245.945312 109.914062 236.808594 C 109.914062 236.808594 80.492188 262.128906 64.9375 234.402344 C 80.410156 243.664062 101.015625 233.640625 105.828125 219.730469 C 93.320312 226.503906 61.328125 217.324219 70.710938 175.472656 C 70.710938 175.472656 71.671875 196.878906 92.117188 203.613281 C 92.117188 203.613281 75.761719 196.15625 73.59375 176.433594 C 71.429688 156.710938 88.730469 152.1875 91.859375 151.09375 C 101.953125 147.554688 107.660156 143.996094 107.660156 143.996094 C 107.660156 143.996094 109.289062 143.089844 110.652344 144.449219 C 112.011719 145.808594 132.019531 158.257812 124.109375 194.257812 Z M 124.109375 194.257812 " fill-opacity="1" fill-rule="evenodd"/></g><g fill="#e1dfdf" fill-opacity="1"><g transform="translate(136.937588, 220.671958)"><g><path d="M 5.828125 -56.59375 L 48.171875 -12.234375 L 48.171875 -54.28125 L 54.21875 -54.28125 L 54.21875 2.453125 L 11.875 -41.828125 L 11.875 0 L 5.828125 0 Z M 5.828125 -56.59375 "/></g></g></g><g fill="#e1dfdf" fill-opacity="1"><g transform="translate(196.985557, 220.671958)"><g><path d="M 7.5625 -54.28125 L 21.390625 -30.09375 L 35.203125 -54.28125 L 42.1875 -54.28125 L 24.40625 -23.328125 L 24.40625 0 L 18.359375 0 L 18.359375 -23.328125 L 0.578125 -54.28125 Z M 7.5625 -54.28125 "/></g></g></g><g fill="#e1dfdf" fill-opacity="1"><g transform="translate(239.681539, 220.671958)"><g><path d="M 11.515625 -54.28125 L 11.515625 -5.609375 L 26.5 -5.609375 L 26.5 0 L 5.46875 0 L 5.46875 -54.28125 Z M 11.515625 -54.28125 "/></g></g></g><g fill="#e1dfdf" fill-opacity="1"><g transform="translate(266.681526, 220.671958)"><g><path d="M 25.484375 -56.875 L 49.890625 0 L 43.203125 0 L 36.796875 -15.40625 L 13.609375 -15.40625 L 7.0625 0 L 0.4375 0 Z M 16.0625 -21.03125 L 34.421875 -21.03125 L 25.34375 -42.765625 Z M 9.796875 -54.28125 Z M 9.796875 -54.28125 "/></g></g></g></svg>